# xmcd CD database file
# Copyright (C) 1993-1997  Ti Kan
#
# Track frame offsets:
#	182
#	14547
#	29565
#	39520
#	55452
#	76665
#	92667
#	107145
#	123080
#	137287
#	149062
#	163875
#	181272
#	200355
#
# Disc length: 2893 seconds
#
# Revision: 1
# Processed by: cddbd v1.4b41PL1 Copyright (c) Steve Scherf et al.
# Submitted via: xmcd 2.1 PL1
#
DISCID=bc0b4b0e
DTITLE=Ray Charles  Soul
DYEAR=1900
DGENRE=
TTITLE0=Let's call the whole thing off 
TTITLE1=Stranger in my home town
TTITLE2=we didn't see a thing
TTITLE3=Nothing like a hundred miles
TTITLE4=You feel good all over
TTITLE5=I don't want no stranger sleepin' in my bed
TTITLE6=I wish i'd never loved you at all
TTITLE7=I'd walk a little more for you
TTITLE8=I wish you were here tonight
TTITLE9=Two old cats like you
TTITLE10=You've got the longest leaving act in town
TTITLE11=Too hard  to love you
TTITLE12=If  that's what'cha want 
TTITLE13=Save the bones for Henry Jones
EXTD=
EXTT0=
EXTT1=
EXTT2=
EXTT3=
EXTT4=
EXTT5=
EXTT6=
EXTT7=
EXTT8=
EXTT9=
EXTT10=
EXTT11=
EXTT12=
EXTT13=
PLAYORDER=
